  0
SECTION
  2
HEADER
  9
$ANGBASE
  50
0.0
  9
$ANGDIR
  70
1
  9
$MEASUREMENT
  70
1
  0
ENDSEC
  0
SECTION
  2
TABLES
  0
TABLE
  2
LTYPE
  70
4
  0
LTYPE
  5
40F
  2
CONTINUOUS
  70
0
  3
Solid line
  72
65
  73
0
  40
0.0
  0
LTYPE
  5
410
  2
DASHDOT
 70
0
  3
Dash Dot ____ _ ____ _
 72
65
 73
4
 40
2.0
 49
1.25
 49
-0.25
 49
0.25
 49
-0.25
  0
LTYPE
  5
411
  2
DASHED
 70
0
  3
Dashed __ __ __ __ __
 72
65
 73
2
 40
0.75
 49
0.5
 49
-0.25
  0
LTYPE
  5
43B
  2
DOTTED
 70
0
  3
Dotted .  .  .  .
 72
65
 73
2
 40
0.2
 49
0.0
 49
-0.2
  0
ENDTAB
  0
TABLE
  2
STYLE
  70
4
  0
STYLE
  2
KICAD
  70
0
  40
0
  41
1
  42
1
  50
0
  71
0
  3
isocp.shx
  0
STYLE
  2
KICADB
  70
0
  40
0
  41
1
  42
1
  50
0
  71
0
  3
isocp.shx
  0
STYLE
  2
KICADI
  70
0
  40
0
  41
1
  42
1
  50
15
  71
0
  3
isocp.shx
  0
STYLE
  2
KICADBI
  70
0
  40
0
  41
1
  42
1
  50
15
  71
0
  3
isocp.shx
  0
ENDTAB
  0
TABLE
  2
LAYER
  70
1
  0
LAYER
  2
BLACK
  70
0
  62
7
  6
CONTINUOUS
  0
ENDTAB
  0
ENDSEC
  0
SECTION
  2
ENTITIES
0
LINE
8
BLACK
6
CONTINUOUS
10
121.3125
20
-41.75
11
121.3125
21
-39.6875
0
LINE
8
BLACK
6
CONTINUOUS
10
140.9999870000000044
20
-121.0892459999999886
11
257.6997059999999919
21
-100.5119359999999915
0
ARC
8
BLACK
10
131.4375
20
-39.6875
40
1.
50
0.00000000
51
90.00000000
0
ARC
8
BLACK
10
122.3125
20
-39.6875
40
1.
50
90.00000000
51
180.00000000
0
LINE
8
BLACK
6
CONTINUOUS
10
132.4375
20
-49.1356739999999945
11
132.4375
21
-39.6875
0
LINE
8
BLACK
6
CONTINUOUS
10
23.875
20
-43.75
11
119.3125
21
-43.75
0
ARC
8
BLACK
10
23.875
20
-111.75
40
2.
50
-180.00000000
51
-90.00000000
0
LINE
8
BLACK
6
CONTINUOUS
10
134.784796
20
-51.1052889999999991
11
245.5443349999999896
21
-31.5753939999999993
0
LINE
8
BLACK
6
CONTINUOUS
10
137.9664429999999982
20
-115.402704
11
138.6830750000000023
21
-119.4669269999999983
0
ARC
8
BLACK
10
257.3523999999999887
20
-98.5422999999999973
40
2.0000066263642728
50
-79.99982985
51
9.99934531
0
ARC
8
BLACK
10
119.3125
20
-41.75
40
2.
50
-90.00000000
51
-0.00000000
0
LINE
8
BLACK
6
CONTINUOUS
10
21.875
20
-111.75
11
21.875
21
-45.75
0
LINE
8
BLACK
6
CONTINUOUS
10
23.875
20
-113.75
11
135.9968279999999936
21
-113.75
0
LINE
8
BLACK
6
CONTINUOUS
10
259.3220259999999939
20
-98.1950250000000011
11
247.8612459999999942
21
-33.1977139999999977
0
ARC
8
BLACK
10
245.8915999999999826
20
-33.5450999999999979
40
2.0000836749148769
50
10.00237736
51
99.99866526
0
ARC
8
BLACK
10
23.875
20
-45.75
40
2.
50
90.00000000
51
180.00000000
0
ARC
8
BLACK
10
135.9968000000000075
20
-115.75
40
2.0000000001960001
50
9.99985320
51
89.99919786
0
ARC
8
BLACK
10
140.6526999999999816
20
-119.1195999999999913
40
2.0000284062195215
50
-169.99918267
51
-80.00041563
0
ARC
8
BLACK
10
134.4375
20
-49.1356999999999999
40
1.9999738349630976
50
-180.00074485
51
-79.99987817
0
LINE
8
BLACK
6
CONTINUOUS
10
131.4375
20
-38.6875
11
122.3125
21
-38.6875
0
CIRCLE
8
BLACK
10
74.375
20
-78.75
40
1.0999999999999999
0
CIRCLE
8
BLACK
10
109.375
20
-96.25
40
1.0999999999999999
0
CIRCLE
8
BLACK
10
39.375
20
-61.25
40
1.0999999999999999
0
CIRCLE
8
BLACK
10
201.8892290000000003
20
-74.8128979999999899
40
1.0999999999999999
0
CIRCLE
8
BLACK
10
239.3963430000000017
20
-85.9693479999999965
40
1.0999999999999999
0
CIRCLE
8
BLACK
10
147.1479789999999923
20
-66.6952919999999949
40
1.0999999999999999
0
CIRCLE
8
BLACK
10
153.2256649999999922
20
-101.1635629999999964
40
1.0999999999999999
0
CIRCLE
8
BLACK
10
39.375
20
-96.25
40
1.0999999999999999
0
CIRCLE
8
BLACK
10
109.375
20
-61.25
40
1.0999999999999999
0
CIRCLE
8
BLACK
10
241.9357249999999908
20
-49.9816549999999964
40
1.0999999999999999
  0
ENDSEC
  0
EOF
